{"title":"Dont.Be.Afraid. of.the.Dark.2010.DVDRip.Swesub.Xvid","uid":8579072,"size":733940123,"categoryP":"video","categoryS":"movies","magnet":"?xt=urn:btih:78477ce31c954714064914c3ca1648a4f0a16eb7&amp;dn=Dont.Be.Afraid.+of.the.Dark.2010.DVDRip.Swesub.Xvid&amp;tr=udp%3A%2F%2Ftracker.openbittorrent.com%3A80&amp;tr=udp%3A%2F%2Fopen.demonii.com%3A1337&amp;tr=udp%3A%2F%2Ftracker.coppersurfer.tk%3A6969&amp;tr=udp%3A%2F%2Fexodus.desync.com%3A6969","seeders":1,"leechers":0,"uploader":"nordjok","files":-1,"time":1371374861,"description":"\n                             Swedish Hardsub\n\n &lt;a href=&quot;\nhttp://www.imdb.com/title/tt1270761/&quot; rel=&quot;nofollow&quot; target=&quot;_NEW&quot;&gt;\nhttp://www.imdb.com/title/tt1270761/&lt;/a&gt;\n\nGeneral\nComplete name       : Dont.Be.Afraid. of.the.Dark.2010.DVDRip.Swesub.Xvid.avi\nFormat                              : AVI\nFormat/Info                         : Audio Video Interleave\nFile size                           : 700 MiB\nDuration                            : 1h 35mn\n\nVideo\nID                                  : 0\nFormat                              : MPEG-4 Visual\nFormat profile                      : Advanced Simple@L5\nFormat settings, BVOP               : 2\nFormat settings, QPel               : No\nFormat settings, GMC                : No warppoints\nFormat settings, Matrix             : Default (H.263)\nCodec ID                            : XVID\nCodec ID/Hint                       : XviD\nDuration                            : 1h 35mn\nBit rate                            : 881 Kbps\nWidth                               : 656 pixels\nHeight                              : 352 pixels\nDisplay aspect ratio                : 1.85:1\nFrame rate                          : 25.000 fps\nColor space                         : YUV\nChroma subsampling                  : 4:2:0\nBit depth                           : 8 bits\nScan type                           : Progressive\nCompression mode                    : Lossy\nBits/(Pixel*Frame)                  : 0.153\nStream size                         : 600 MiB (86%)\nWriting library                     : XviD 73\n\nAudio\nID                                  : 1\nFormat                              : MPEG Audio\nFormat version                      : Version 1\nFormat profile                      : Layer 3\nCodec ID                            : 55\nCodec ID/Hint                       : MP3\nDuration                            : 1h 35mn\nBit rate mode                       : Variable\nBit rate                            : 134 Kbps\nMinimum bit rate                    : 32.0 Kbps\nChannel(s)                          : 2 channels\nSampling rate                       : 48.0 KHz\nCompression mode                    : Lossy\nStream size                         : 91.4 MiB (13%)\nAlignment                           : Aligned on interleaves\nInterleave, duration                : 24 ms (0.60 video frame)\nInterleave, preload duration        : 137 ms\nWriting library                     : LAME3.99r\nEncoding settings                   : -m s -V 5 -q 0 -lowpass 17 --vbr-new -b 32\n\n","torrent":{"xt":"urn:btih:78477ce31c954714064914c3ca1648a4f0a16eb7","amp;dn":"Dont.Be.Afraid.+of.the.Dark.2010.DVDRip.Swesub.Xvid","amp;tr":["udp%3A%2F%2Ftracker.openbittorrent.com%3A80","udp%3A%2F%2Fopen.demonii.com%3A1337","udp%3A%2F%2Ftracker.coppersurfer.tk%3A6969","udp%3A%2F%2Fexodus.desync.com%3A6969"],"infoHash":"78477ce31c954714064914c3ca1648a4f0a16eb7","infoHashBuffer":{"type":"Buffer","data":[120,71,124,227,28,149,71,20,6,73,20,195,202,22,72,164,240,161,110,183]},"announce":[],"urlList":[]}}